<mxfile host="65bd71144e">
    <diagram id="mWEKx21-Lsvu6ga1-Sze" name="Page-1">
        <mxGraphModel dx="414" dy="1352" grid="1" gridSize="10" guides="1" tooltips="1" connect="1" arrows="1" fold="1" page="1" pageScale="1" pageWidth="850" pageHeight="1100" math="0" shadow="0">
            <root>
                <mxCell id="0"/>
                <mxCell id="1" parent="0"/>
                <mxCell id="5" value="&lt;h1&gt;Streamlit&lt;/h1&gt;Conda create -n streamlit_env&lt;br&gt;conda activate streamlit_env" style="rounded=1;whiteSpace=wrap;html=1;fillColor=#60a917;fontColor=#ffffff;strokeColor=#2D7600;" vertex="1" parent="1">
                    <mxGeometry x="120" y="-30" width="250" height="100" as="geometry"/>
                </mxCell>
                <mxCell id="7" value="Conda install python&lt;br&gt;pip install streamlit&lt;br&gt;pip install pandas numpy plotly seaborn matplotlib scipy scikit-learn openpyxl" style="rounded=1;whiteSpace=wrap;html=1;fillColor=#0050ef;fontColor=#ffffff;strokeColor=#001DBC;" vertex="1" parent="1">
                    <mxGeometry x="10" y="110" width="250" height="60" as="geometry"/>
                </mxCell>
                <mxCell id="8" value="" style="endArrow=classic;html=1;entryX=0.75;entryY=0;entryDx=0;entryDy=0;" edge="1" parent="1" source="5" target="7">
                    <mxGeometry width="50" height="50" relative="1" as="geometry">
                        <mxPoint x="190" y="100" as="sourcePoint"/>
                        <mxPoint x="240" y="50" as="targetPoint"/>
                    </mxGeometry>
                </mxCell>
            </root>
        </mxGraphModel>
    </diagram>
</mxfile>